<svg width="48" height="48" viewBox="0 0 48 48" fill="none" xmlns="http://www.w3.org/2000/svg">
<rect x="0.5" y="0.5" width="47" height="47" rx="23.5" stroke="black" stroke-opacity="0.08"/>
<path d="M30.24 12H17.76C14.5788 12 12 14.5788 12 17.76V30.24C12 33.4212 14.5788 36 17.76 36H30.24C33.4212 36 36 33.4212 36 30.24V17.76C36 14.5788 33.4212 12 30.24 12Z" fill="#FF5F00"/>
<path d="M20.6955 21.7782L17.5158 20.3147C17.2812 20.1907 17.2812 19.8682 17.5158 19.7442L21.0864 17.1893C21.321 17.0405 21.6598 17.2141 21.6598 17.487V21.2324C21.6598 21.3565 21.5817 21.4557 21.5034 21.5301C21.3992 21.6046 21.2168 21.7285 21.1125 21.7782C20.9561 21.8526 20.7998 21.8526 20.6955 21.7782ZM26.5858 32.072L22.8066 29.666C22.6503 29.5668 22.5721 29.4179 22.5721 29.2443C22.5721 26.0197 22.5721 16.346 22.5721 16.346C22.5721 15.9491 23.0412 15.7011 23.4061 15.9243L26.8204 18.0823C27.1853 18.3303 27.4198 18.7272 27.4198 19.1489V31.6504C27.4198 32.072 26.9507 32.2952 26.5858 32.072Z" fill="white"/>
</svg>
