<svg width="48" height="48" viewBox="0 0 48 48" fill="none" xmlns="http://www.w3.org/2000/svg">
<rect x="0.5" y="0.5" width="47" height="47" rx="23.5" stroke="black" stroke-opacity="0.08"/>
<path d="M33.6004 23.9999C33.6004 29.302 29.3025 33.5999 24.0004 33.5999C18.6983 33.5999 14.4004 29.302 14.4004 23.9999C14.4004 18.6978 18.6983 14.3999 24.0004 14.3999C29.3025 14.3999 33.6004 18.6978 33.6004 23.9999Z" fill="#00A9AC"/>
<path d="M30.94 23.9998C30.94 27.8317 27.8331 30.9386 24.0013 30.9386C20.1694 30.9386 17.0625 27.8317 17.0625 23.9998C17.0625 20.1679 20.1694 17.061 24.0013 17.061C27.8331 17.061 30.94 20.1679 30.94 23.9998Z" fill="#FA9D1E"/>
<path d="M24.0009 30.6536C20.3261 30.6536 17.3472 27.6747 17.3472 23.9999C17.3472 20.3252 20.3261 17.3463 24.0009 17.3463C27.6757 17.3463 30.6546 20.3252 30.6546 23.9999C30.6546 27.6747 27.6757 30.6536 24.0009 30.6536ZM24.0009 16.6812C19.959 16.6807 16.6816 19.958 16.6816 23.9999C16.6816 28.0418 19.959 31.3192 24.0009 31.3192C28.0428 31.3192 31.3202 28.0418 31.3202 23.9999C31.3202 19.958 28.0422 16.6812 24.0009 16.6812Z" fill="white"/>
<path d="M24.9436 24.293C24.5198 24.7927 24.199 25.3713 23.9999 25.9954C23.8008 25.3711 23.48 24.7923 23.0562 24.2925L23.0492 24.2843H24.9506L24.9436 24.293ZM23.9999 23.2708C23.5018 23.2708 23.0015 23.2836 22.5005 23.308C22.2825 23.0184 22.0192 22.7658 21.7209 22.5598C23.9715 22.4001 26.2327 22.4775 28.4671 22.7908L28.5491 22.0094C27.0806 21.715 25.5586 21.5602 23.9999 21.5602C22.4412 21.5602 20.9191 21.715 19.45 22.0094L19.5327 22.7908C19.898 22.7394 20.2642 22.6944 20.6311 22.6558C20.6814 22.6505 20.7322 22.6585 20.7783 22.6791C21.1216 22.8292 21.4189 23.066 21.6452 23.3621C20.7177 23.4327 19.794 23.546 18.877 23.7019L18.9625 24.5118C19.6868 24.449 20.5741 24.3821 20.7609 24.378C21.8233 24.3576 22.7053 25.0866 22.9602 26.1211C23.1353 26.86 23.0422 27.8142 23.0178 28.2767H24.982C24.9575 27.8142 24.8644 26.86 25.0402 26.1211C25.2944 25.0866 26.1764 24.3576 27.2388 24.3786C27.4262 24.3821 28.3129 24.4484 29.0372 24.5118L29.1228 23.7019C27.4302 23.4156 25.7165 23.2715 23.9999 23.2714V23.2708ZM23.9999 20.1028C22.8979 20.1028 21.8239 20.2191 20.7882 20.4391L20.8633 21.1582C21.8867 21.0058 22.9346 20.9266 23.9999 20.9266C25.0652 20.9266 26.113 21.0058 27.1364 21.1582L27.2121 20.4391C26.1561 20.2149 25.0794 20.1021 23.9999 20.1028Z" fill="black"/>
</svg>
