<svg width="48" height="48" viewBox="0 0 48 48" fill="none" xmlns="http://www.w3.org/2000/svg">
<rect x="0.5" y="0.5" width="47" height="47" rx="23.5" stroke="black" stroke-opacity="0.08"/>
<path d="M36 24C36 30.6273 30.6273 36 24 36C17.3727 36 12 30.6273 12 24C12 17.3727 17.3727 12 24 12C30.6273 12 36 17.3727 36 24Z" fill="#B2FA00"/>
<path d="M31.6977 22.0684C30.9401 21.4942 30.1057 20.6224 30.2169 19.4222C30.7839 19.2644 31.1097 18.9229 31.2633 18.6022C31.4937 18.1314 31.4831 17.6477 31.046 17.1691C30.9905 17.1096 30.8898 17.151 30.8951 17.2312C30.9136 17.583 30.9321 18.2038 30.1216 18.3668C29.2289 18.5479 27.6952 18.3306 27.1787 17.8649C26.7019 17.4355 26.6516 16.9208 27.0833 16.1189C27.1231 16.0464 27.0436 15.9688 26.9694 16.0025C26.5721 16.1913 25.8463 16.5638 25.8622 17.6347C25.8728 18.3461 26.2966 18.9178 26.882 19.1506C24.1007 19.9887 22.9537 18.9798 19.7962 18.9359C17.1685 18.8996 16.554 21.0363 16.6996 23.2247C16.7579 24.0887 16.8321 25.1105 17.0096 25.8063C17.1526 26.3754 17.4758 26.7065 17.4466 27.4282C17.4254 28.0103 17.3433 28.2482 17.4387 28.8018C17.4599 28.9182 17.534 28.9932 17.6585 29.0346C17.9791 29.1433 18.3578 29.0889 18.5115 29.0423C18.6545 29.0009 18.7631 28.926 18.734 28.8018C18.477 27.7102 18.2386 26.2332 18.4903 25.2527C18.5247 25.1131 18.6466 24.9759 18.8664 25.0924C19.2214 25.2838 19.5922 25.5787 20.0796 26.0779C20.816 26.8332 21.5127 28.318 21.6213 29.4381C21.6372 29.6089 21.722 29.7511 21.8676 29.8003C22.2597 29.9374 22.6596 29.8882 22.8689 29.7615C22.959 29.7071 23.0067 29.6244 22.9828 29.5313C22.7153 28.4707 21.8438 27.1928 21.767 26.065C21.7511 25.8348 21.8332 25.814 22.0239 25.8451C22.318 25.8943 22.5484 25.9124 22.763 25.9227C22.8345 25.9253 22.906 25.9564 22.9511 26.0107C23.8384 27.0713 24.8397 28.5742 24.7681 30.1366C24.7655 30.2245 24.8052 30.3047 24.8741 30.359C25.1788 30.6047 25.1841 31.1532 25.2344 31.655C25.2449 31.761 25.3112 31.8542 25.4119 31.8904C25.7801 32.0275 26.2489 32.0508 26.6383 31.9033C26.7072 31.8775 26.7522 31.8128 26.7416 31.7429C26.5959 30.7574 25.7986 29.9322 25.9867 28.4577C26.0264 28.137 26.286 27.6765 26.4608 27.0816C26.8767 25.6718 26.7734 25.2243 27.1813 24.4224C27.4436 23.905 28.0396 23.2377 28.8687 23.7059C29.5044 24.0628 29.9468 24.1378 30.4024 24.0783C31.1971 23.9749 31.7083 23.3023 31.8937 22.5961C31.9361 22.3996 31.862 22.1926 31.6977 22.0684Z" fill="black"/>
</svg>
