<svg width="48" height="48" viewBox="0 0 48 48" fill="none" xmlns="http://www.w3.org/2000/svg">
<rect x="0.5" y="0.5" width="47" height="47" rx="23.5" stroke="black" stroke-opacity="0.08"/>
<path d="M34.5744 24.0274C34.5744 29.8527 29.8521 34.5754 24.0265 34.5754C18.2008 34.5754 13.4785 29.8527 13.4785 24.0274C13.4785 18.2022 18.2008 13.4795 24.0265 13.4795C29.8521 13.4795 34.5744 18.2017 34.5744 24.0274Z" fill="#BEC430"/>
<path fill-rule="evenodd" clip-rule="evenodd" d="M36 24C36 30.6147 30.6402 36 24 36C17.3598 36 12 30.6147 12 24C12 17.3853 17.3598 12 24 12C30.6402 12 36 17.3853 36 24ZM24 34.2857C29.6744 34.2857 34.2741 29.6804 34.2741 24C34.2741 18.3196 29.6744 13.7143 24 13.7143C18.3256 13.7143 13.7259 18.3191 13.7259 24C13.7259 29.6809 18.3256 34.2857 24 34.2857Z" fill="#040000"/>
<mask id="mask0_5516_32369" style="mask-type:luminance" maskUnits="userSpaceOnUse" x="18" y="18" width="13" height="13">
<path d="M30.0145 18.228H18.1191V30.2938H30.0145V18.228Z" fill="white"/>
</mask>
<g mask="url(#mask0_5516_32369)">
<path d="M26.59 24.1706C26.5429 24.2221 26.5429 24.3021 26.59 24.3541L29.7763 27.8615C29.8602 27.9536 30.0136 27.8944 30.0136 27.77V20.7541C30.0136 20.6292 29.8602 20.57 29.7763 20.6626L26.59 24.1706Z" fill="#040000"/>
<path d="M25.8388 30.0548L25.9539 30.1813C26.0186 30.252 26.1101 30.2931 26.2065 30.2931H29.6399C29.9364 30.2931 30.092 29.9402 29.8909 29.7216L29.8766 29.7057L25.1386 24.4887C25.0207 24.3583 25.0207 24.16 25.1386 24.0306L29.8766 18.8137L29.8909 18.7978C30.092 18.5797 29.9364 18.2268 29.6399 18.2268H26.2054C26.1134 18.2268 26.0262 18.2635 25.9627 18.3293C25.9594 18.3326 25.9561 18.3353 25.9534 18.3386L23.6049 20.9243L21.7983 22.9128V18.5682C21.7983 18.3802 21.6454 18.2274 21.4575 18.2274H18.458C18.2701 18.2274 18.1172 18.3802 18.1172 18.5682V29.9523C18.1172 30.1402 18.2701 30.2931 18.458 30.2931H21.4575C21.6454 30.2931 21.7983 30.1402 21.7983 29.9523V25.6071L23.6049 27.5956L25.8377 30.0542L25.8388 30.0548Z" fill="#040000"/>
</g>
</svg>
