<svg width="48" height="48" viewBox="0 0 48 48" fill="none" xmlns="http://www.w3.org/2000/svg">
<rect x="0.5" y="0.5" width="47" height="47" rx="23.5" stroke="black" stroke-opacity="0.08"/>
<path d="M27.5144 17.7112H20.4844V30.2912H27.5144V17.7112Z" fill="#FF5F00"/>
<path d="M20.9313 24C20.9313 21.4489 22.132 19.1756 24 17.7111C22.6342 16.64 20.909 16 19.0343 16C14.5976 16 11 19.5822 11 24C11 28.4178 14.5976 32 19.0343 32C20.909 32 22.6319 31.36 24 30.2889C22.132 28.8244 20.9313 26.5511 20.9313 24Z" fill="#EB001B"/>
<path d="M37 24C37 28.4178 33.4024 32 28.9657 32C27.091 32 25.3681 31.36 24 30.2889C25.868 28.8244 27.0687 26.5511 27.0687 24C27.0687 21.4489 25.868 19.1756 24 17.7111C25.3658 16.64 27.091 16 28.9657 16C33.4024 16 37 19.5822 37 24Z" fill="#F79E1B"/>
</svg>
