<svg width="48" height="48" viewBox="0 0 48 48" fill="none" xmlns="http://www.w3.org/2000/svg">
<rect x="0.5" y="0.5" width="47" height="47" rx="23.5" stroke="black" stroke-opacity="0.08"/>
<path d="M8.80078 24.0003C8.80078 20.9072 15.606 18.3999 24.0008 18.3999C32.3955 18.3999 39.2008 20.9073 39.2008 24.0003C39.2008 27.0925 32.3955 29.5999 24.0008 29.5999C15.606 29.5999 8.80078 27.0925 8.80078 24.0003Z" fill="#006891"/>
<path d="M8.80078 24.0003C8.80078 20.9072 15.606 18.3999 24.0008 18.3999C32.3955 18.3999 39.2008 20.9073 39.2008 24.0003C39.2008 27.0925 32.3955 29.5999 24.0008 29.5999C15.606 29.5999 8.80078 27.0925 8.80078 24.0003Z" stroke="#006891" stroke-width="0.0486" stroke-miterlimit="3.8636"/>
<path fill-rule="evenodd" clip-rule="evenodd" d="M14.3711 26.722L15.9488 21.1599H18.4386V24.4314H18.4549L20.1442 21.1599H22.6737L21.096 26.722H19.4518L20.4633 23.1543H20.447L18.4386 26.722H17.122V23.1543H17.0954L16.0839 26.722H14.3711Z" fill="white"/>
<path fill-rule="evenodd" clip-rule="evenodd" d="M23.1191 26.8323L23.3428 26.0417H25.1574L24.9332 26.8323H23.1191Z" fill="#EE4034"/>
<path fill-rule="evenodd" clip-rule="evenodd" d="M23.4055 25.8196L24.3234 22.5857H22.6738L23.0784 21.1599H28.192L27.7875 22.5857H26.1379L25.2204 25.8187L23.4055 25.8196Z" fill="#FFC325"/>
<path fill-rule="evenodd" clip-rule="evenodd" d="M27.0195 26.722L28.5963 21.1599H30.3783L31.1823 24.136H31.1981L32.0419 21.1599H33.6891L32.1124 26.722H30.4172L29.544 23.6844H29.5282L28.6669 26.722H27.0195Z" fill="white"/>
</svg>
