<svg width="48" height="48" viewBox="0 0 48 48" fill="none" xmlns="http://www.w3.org/2000/svg">
<rect x="0.5" y="0.5" width="47" height="47" rx="23.5" stroke="black" stroke-opacity="0.08"/>
<path d="M22.6131 30.0901C22.2366 30.0901 21.8721 30.2216 21.5811 30.4621C21.2901 30.7027 21.0911 31.0374 21.0176 31.4094C20.9441 31.7813 21.0011 32.1673 21.1786 32.5018C21.3556 32.8362 21.6426 33.0983 21.9906 33.2434C22.3381 33.3885 22.7251 33.4077 23.0851 33.2976C23.4451 33.1875 23.7566 32.955 23.9656 32.6398C24.1746 32.3245 24.2686 31.9459 24.2316 31.5685C24.1951 31.1911 24.0291 30.8383 23.7631 30.5702C23.6126 30.4171 23.4336 30.2958 23.2361 30.2134C23.0386 30.131 22.8266 30.0891 22.6131 30.0901Z" fill="#FC4D0F"/>
<path d="M23.7681 18.2073C23.5051 17.9426 23.1696 17.7625 22.8051 17.6897C22.4401 17.6169 22.0621 17.6546 21.7186 17.7982C21.3751 17.9418 21.0816 18.1847 20.8751 18.4963C20.6686 18.8079 20.5586 19.1742 20.5586 19.5488C20.5586 19.9235 20.6686 20.2898 20.8751 20.6014C21.0816 20.913 21.3751 21.1559 21.7186 21.2995C22.0621 21.443 22.4401 21.4808 22.8051 21.408C23.1696 21.3352 23.5051 21.1551 23.7681 20.8904C23.9446 20.7153 24.0846 20.5067 24.1801 20.2766C24.2756 20.0466 24.3246 19.7997 24.3246 19.5503C24.3246 19.3009 24.2756 19.054 24.1801 18.824C24.0846 18.5939 23.9446 18.3853 23.7681 18.2102" fill="#FC4D0F"/>
<path d="M26.8379 21.2956C26.5744 21.0316 26.2394 20.8521 25.8749 20.7798C25.5104 20.7075 25.1324 20.7456 24.7894 20.8894C24.4464 21.0331 24.1534 21.2761 23.9469 21.5875C23.7409 21.899 23.6309 22.265 23.6309 22.6394C23.6309 23.0138 23.7409 23.3799 23.9469 23.6913C24.1534 24.0028 24.4464 24.2457 24.7894 24.3894C25.1324 24.5332 25.5104 24.5713 25.8749 24.499C26.2394 24.4267 26.5744 24.2472 26.8379 23.9832C27.0144 23.8081 27.1549 23.5993 27.2504 23.3692C27.3459 23.139 27.3954 22.8919 27.3954 22.6424C27.3954 22.3928 27.3459 22.1458 27.2504 21.9156C27.1549 21.6854 27.0144 21.4766 26.8379 21.3015" fill="#FC4D0F"/>
<path d="M29.9078 24.3835C29.6448 24.1187 29.3093 23.9383 28.9448 23.8654C28.5798 23.7924 28.2018 23.83 27.8583 23.9735C27.5148 24.117 27.2208 24.36 27.0143 24.6716C26.8078 24.9832 26.6973 25.3496 26.6973 25.7243C26.6973 26.0991 26.8078 26.4655 27.0143 26.7771C27.2208 27.0887 27.5148 27.3317 27.8583 27.4752C28.2018 27.6187 28.5798 27.6563 28.9448 27.5833C29.3093 27.5104 29.6448 27.33 29.9078 27.0652C30.0843 26.8901 30.2243 26.6813 30.3203 26.4511C30.4158 26.221 30.4648 25.9739 30.4648 25.7243C30.4648 25.4748 30.4158 25.2277 30.3203 24.9976C30.2243 24.7674 30.0843 24.5586 29.9078 24.3835Z" fill="#FC4D0F"/>
<path d="M20.711 21.291C20.448 21.0259 20.113 20.8454 19.748 20.7722C19.383 20.6991 19.005 20.7366 18.661 20.8801C18.3175 21.0235 18.0235 21.2664 17.817 21.5781C17.61 21.8898 17.5 22.2562 17.5 22.6311C17.5 23.0059 17.61 23.3724 17.817 23.6841C18.0235 23.9957 18.3175 24.2387 18.661 24.3821C19.005 24.5255 19.383 24.5631 19.748 24.4899C20.113 24.4168 20.448 24.2363 20.711 23.9712C20.887 23.7961 21.027 23.5875 21.1225 23.3574C21.218 23.1273 21.2675 22.8805 21.2675 22.6311C21.2675 22.3817 21.218 22.1348 21.1225 21.9048C21.027 21.6747 20.887 21.4661 20.711 21.291Z" fill="#FC4D0F"/>
<path d="M23.7764 24.3792C23.5134 24.1143 23.1784 23.934 22.8134 23.861C22.4484 23.788 22.0704 23.8257 21.7269 23.9692C21.3834 24.1127 21.0899 24.3556 20.8829 24.6672C20.6764 24.9789 20.5664 25.3452 20.5664 25.72C20.5664 26.0948 20.6764 26.4611 20.8829 26.7728C21.0899 27.0844 21.3834 27.3273 21.7269 27.4708C22.0704 27.6143 22.4484 27.652 22.8134 27.579C23.1784 27.506 23.5134 27.3257 23.7764 27.0608C23.9524 26.8854 24.0919 26.6766 24.1874 26.4464C24.2829 26.2163 24.3319 25.9694 24.3319 25.72C24.3319 25.4706 24.2829 25.2237 24.1874 24.9936C24.0919 24.7634 23.9524 24.5546 23.7764 24.3792Z" fill="#FC4D0F"/>
<path d="M26.8365 27.4688C26.4835 27.1133 26.005 26.9136 25.506 26.9136C25.007 26.9136 24.528 27.1133 24.175 27.4688C23.9125 27.7339 23.7335 28.0716 23.661 28.4392C23.5885 28.8068 23.626 29.1878 23.768 29.534C23.9105 29.8802 24.1515 30.1761 24.461 30.3843C24.7705 30.5924 25.134 30.7035 25.506 30.7035C25.878 30.7035 26.2415 30.5924 26.5505 30.3843C26.86 30.1761 27.101 29.8802 27.2435 29.534C27.386 29.1878 27.4235 28.8068 27.351 28.4392C27.2785 28.0716 27.0995 27.7339 26.8365 27.4688Z" fill="#FC4D0F"/>
<path d="M25.3281 15C25.0066 15.0003 24.6926 15.0967 24.4251 15.2769C24.1576 15.4571 23.9496 15.7131 23.8266 16.0125C23.7036 16.3119 23.6716 16.6414 23.7346 16.9592C23.7971 17.277 23.9521 17.5689 24.1796 17.798C24.3306 17.95 24.5101 18.0705 24.7071 18.1527C24.9046 18.2349 25.1156 18.2772 25.3291 18.277C25.5426 18.2769 25.7541 18.2344 25.9511 18.1519C26.1486 18.0695 26.3276 17.9487 26.4786 17.7965C26.6296 17.6443 26.7491 17.4637 26.8306 17.2649C26.9121 17.0661 26.9541 16.8531 26.9541 16.638C26.9536 16.4229 26.9116 16.2099 26.8296 16.0113C26.7481 15.8126 26.6281 15.6321 26.4771 15.4801C26.3266 15.3272 26.1476 15.206 25.9506 15.1236C25.7536 15.0412 25.5416 14.9992 25.3281 15Z" fill="#FC4D0F"/>
</svg>
