<svg width="48" height="48" viewBox="0 0 48 48" fill="none" xmlns="http://www.w3.org/2000/svg">
<rect x="0.5" y="0.5" width="47" height="47" rx="23.5" stroke="black" stroke-opacity="0.08"/>
<g clip-path="url(#clip0_5516_32363)">
<path d="M22.6542 22.2302C22.5944 20.4327 21.0972 19.0343 19.3424 19.0343H19.0886H16.7737H15.4385C15.2686 19.0343 15.1309 19.1754 15.1309 19.3495V28.9752C15.1309 28.9783 15.1333 28.9807 15.1362 28.9807H17.3411C17.5106 28.9807 17.648 28.8399 17.648 28.6661V25.9854C17.648 25.8114 17.7857 25.6702 17.9556 25.6702H19.1613C19.2764 25.6702 19.3556 25.6659 19.4162 25.6576H19.4249C21.247 25.6576 22.7168 24.112 22.6542 22.2302ZM18.9724 23.6113H17.6561C17.653 23.6113 17.6506 23.6088 17.6506 23.6058V21.6311C17.6506 21.4569 17.7883 21.3158 17.9582 21.3158H19.0243C19.6527 21.3158 20.1601 21.8461 20.1439 22.4939C20.1279 23.125 19.5884 23.6113 18.9724 23.6113Z" fill="#1180FA"/>
<path d="M39.9323 22.2252C39.87 20.4306 38.3778 19.0343 36.6257 19.0343H36.3669H34.052H32.7107C32.5442 19.0343 32.4092 19.1727 32.4092 19.3433V28.9807H34.6247C34.7913 28.9807 34.9263 28.8424 34.9263 28.6717V25.9855C34.9263 25.8115 35.064 25.6703 35.2338 25.6703H36.4396C36.5546 25.6703 36.6339 25.666 36.6945 25.6577H36.7032C38.5269 25.6577 39.9977 24.1092 39.9323 22.2252ZM36.2557 23.6113H34.9289V21.6311C34.9289 21.4569 35.0666 21.3158 35.2366 21.3158H36.3027C36.9327 21.3158 37.4411 21.8489 37.422 22.4989C37.4036 23.1271 36.8689 23.6113 36.2557 23.6113Z" fill="#1180FA"/>
<path d="M24.2165 19.0342H30.7483V21.0067C30.7483 21.1774 30.6133 21.3158 30.4468 21.3158H26.7919C26.6254 21.3158 26.4905 21.4541 26.4905 21.6248V22.8518H30.1133V24.6901C30.1133 24.8607 29.9783 24.9991 29.8118 24.9991H26.7919C26.6254 24.9991 26.4905 25.1374 26.4905 25.3081V26.6993H30.8991V28.6716C30.8991 28.8423 30.7641 28.9807 30.5976 28.9807H23.915V19.3432C23.915 19.1726 24.05 19.0342 24.2165 19.0342Z" fill="#1180FA"/>
<path d="M12.8655 28.6586C12.8655 28.8366 12.7183 28.9782 12.545 28.9666C10.0127 28.7975 8.00977 26.6388 8.00977 24.0007C8.00977 21.3626 10.0127 19.204 12.545 19.0348C12.7183 19.0232 12.8655 19.1648 12.8655 19.3428V28.6586Z" fill="#FFDA00"/>
</g>
<defs>
<clipPath id="clip0_5516_32363">
<rect width="32" height="10" fill="white" transform="translate(8 19)"/>
</clipPath>
</defs>
</svg>
