<svg width="48" height="48" viewBox="0 0 48 48" fill="none" xmlns="http://www.w3.org/2000/svg">
<rect x="0.5" y="0.5" width="47" height="47" rx="23.5" stroke="black" stroke-opacity="0.08"/>
<path d="M23.9992 11.2C16.9018 11.2 11.1992 16.9025 11.1992 24C11.1992 31.0974 16.9018 36.7999 23.9992 36.7999C31.0967 36.7999 36.7992 31.0974 36.7992 24C36.7992 16.9025 31.0967 11.2 23.9992 11.2ZM23.9992 35.9384C17.4351 35.9384 12.0608 30.5846 12.0608 24C12.0608 17.4153 17.4146 12.0615 23.9992 12.0615C30.5838 12.0615 35.9377 17.4153 35.9377 24C35.9377 30.5846 30.5633 35.9384 23.9992 35.9384ZM22.3582 18.8923H19.671C19.2813 18.8923 18.871 19.2 18.871 19.6923V22.3589C18.871 22.7487 19.1787 23.1589 19.671 23.1589H22.3582C22.7479 23.1589 23.1582 22.8512 23.1582 22.3589V19.6717C23.0761 19.1999 22.7479 18.8923 22.3582 18.8923ZM22.3582 24.8615H19.671C19.2813 24.8615 18.871 25.1692 18.871 25.6615V28.3487C18.871 28.7384 19.1787 29.1487 19.671 29.1487H22.3582C22.7479 29.1487 23.1582 28.841 23.1582 28.3487V25.641C23.0761 25.1692 22.7479 24.8615 22.3582 24.8615ZM28.3274 18.8923H25.6402C25.2505 18.8923 24.8608 19.2 24.8608 19.6923V22.3589C24.8608 22.7487 25.1685 23.1589 25.6402 23.1589H28.3274C28.7172 23.1589 29.1274 22.8512 29.1274 22.3589V19.6717C29.1274 19.1999 28.7992 18.8923 28.3274 18.8923Z" fill="#3B77BC"/>
</svg>
