<svg width="48" height="48" viewBox="0 0 48 48" fill="none" xmlns="http://www.w3.org/2000/svg">
<rect x="0.5" y="0.5" width="47" height="47" rx="23.5" stroke="black" stroke-opacity="0.08"/>
<path d="M19.2695 12.091C22.484 10.8165 26.2285 10.9047 29.3573 12.3849C28.4658 12.2502 27.5589 12.3518 26.6764 12.5002C24.2795 12.9504 22.0018 14.0723 20.2213 15.7389C18.5142 17.4081 17.3179 19.6228 16.9801 21.9923C16.7565 23.6712 16.9637 25.4323 17.7211 26.9604C18.5015 28.5639 19.8753 29.8789 21.5311 30.5576C23.1266 31.2291 24.9774 31.2218 26.5936 30.6223C29.0184 29.737 30.7608 27.3468 30.96 24.7931C31.0854 23.1194 30.6761 21.3389 29.5457 20.0552C28.4666 18.7986 26.8883 18.1065 25.3089 17.7126C25.2242 16.1631 25.9581 14.6323 27.1219 13.6247C27.7682 13.0449 28.5703 12.6754 29.3996 12.4389L29.4626 12.4173C31.8369 13.5499 33.8544 15.4178 35.1399 17.711C36.2412 19.6633 36.8155 21.9131 36.7586 24.1541C36.7478 27.052 35.6589 29.9212 33.7922 32.137C32.0272 34.2502 29.5584 35.7702 26.8676 36.3789C24.1698 36.9981 21.2671 36.731 18.7422 35.5904C16.2716 34.4928 14.1785 32.5847 12.847 30.2376C11.7393 28.287 11.1533 26.0381 11.202 23.7944C11.2073 20.9989 12.2052 18.2249 13.9475 16.0389C15.3393 14.2933 17.1856 12.9054 19.2695 12.091Z" fill="#EE3124"/>
<path d="M26.6778 12.5003C27.5604 12.3519 28.4672 12.2503 29.3588 12.385L29.4868 12.4066L29.4011 12.439C28.5717 12.6755 27.7696 13.045 27.1233 13.6248C25.9596 14.6324 25.2257 16.1632 25.3104 17.7126C26.8897 18.1066 28.468 18.7987 29.5471 20.0553C30.6776 21.339 31.0868 23.1195 30.9614 24.7932C30.7622 27.3469 29.0199 29.7371 26.595 30.6224C24.9789 31.2219 23.1281 31.2292 21.5326 30.5576C19.8768 29.879 18.503 28.564 17.7225 26.9605C16.9651 25.4324 16.758 23.6713 16.9815 21.9924C17.3194 19.6229 18.5156 17.4082 20.2228 15.739C22.0032 14.0724 24.281 12.9505 26.6778 12.5003Z" fill="white"/>
</svg>
