<svg width="48" height="48" viewBox="0 0 48 48" fill="none" xmlns="http://www.w3.org/2000/svg">
<rect x="0.5" y="0.5" width="47" height="47" rx="23.5" stroke="black" stroke-opacity="0.08"/>
<g clip-path="url(#clip0_5516_32365)">
<path fill-rule="evenodd" clip-rule="evenodd" d="M32.25 12H15.75C13.6789 12 12 13.6789 12 15.75V32.25C12 34.3211 13.6789 36 15.75 36H32.25C34.3211 36 36 34.3211 36 32.25V15.75C36 13.6789 34.3211 12 32.25 12Z" fill="#005CB9"/>
<path fill-rule="evenodd" clip-rule="evenodd" d="M23.1022 27.1326H28.6916C29.552 27.1326 30.2503 27.8309 30.2503 28.6913C30.2503 29.5517 29.552 30.25 28.6916 30.25H19.3395C18.9405 30.25 18.5415 30.098 18.2375 29.7933C17.6312 29.1878 17.5696 28.1318 18.1705 27.5223L27.5226 18.1702C28.132 17.5693 29.188 17.6317 29.7936 18.2372C30.3992 18.8428 30.4015 19.8232 29.8006 20.4326L23.1022 27.1326ZM22.4568 20.8979H19.3395C18.4791 20.8979 17.7808 20.1996 17.7808 19.3392C17.7808 18.4788 18.4791 17.7805 19.3395 17.7805H25.5742L22.4568 20.8979Z" fill="white"/>
</g>
<defs>
<clipPath id="clip0_5516_32365">
<rect width="24" height="24" fill="white" transform="translate(12 12)"/>
</clipPath>
</defs>
</svg>
