<svg width="48" height="48" viewBox="0 0 48 48" fill="none" xmlns="http://www.w3.org/2000/svg">
<rect x="0.5" y="0.5" width="47" height="47" rx="23.5" stroke="black" stroke-opacity="0.08"/>
<path d="M14.25 21.75H16.5V27.75H15C14.8011 27.75 14.6103 27.829 14.4697 27.9697C14.329 28.1103 14.25 28.3011 14.25 28.5C14.25 28.6989 14.329 28.8897 14.4697 29.0304C14.6103 29.171 14.8011 29.25 15 29.25H33C33.1989 29.25 33.3897 29.171 33.5303 29.0304C33.671 28.8897 33.75 28.6989 33.75 28.5C33.75 28.3011 33.671 28.1103 33.5303 27.9697C33.3897 27.829 33.1989 27.75 33 27.75H31.5V21.75H33.75C33.9132 21.7499 34.0719 21.6965 34.202 21.598C34.3321 21.4995 34.4265 21.3612 34.4709 21.2042C34.5153 21.0472 34.5073 20.8799 34.4481 20.7279C34.3889 20.5758 34.2817 20.4472 34.1428 20.3616L24.3928 14.3616C24.2747 14.2889 24.1387 14.2505 24 14.2505C23.8613 14.2505 23.7253 14.2889 23.6072 14.3616L13.8572 20.3616C13.7183 20.4472 13.6111 20.5758 13.5519 20.7279C13.4927 20.8799 13.4847 21.0472 13.5291 21.2042C13.5735 21.3612 13.6679 21.4995 13.798 21.598C13.9281 21.6965 14.0868 21.7499 14.25 21.75ZM18 21.75H21V27.75H18V21.75ZM25.5 21.75V27.75H22.5V21.75H25.5ZM30 27.75H27V21.75H30V27.75ZM24 15.8803L31.1006 20.25H16.8994L24 15.8803ZM35.25 31.5C35.25 31.6989 35.171 31.8897 35.0303 32.0304C34.8897 32.171 34.6989 32.25 34.5 32.25H13.5C13.3011 32.25 13.1103 32.171 12.9697 32.0304C12.829 31.8897 12.75 31.6989 12.75 31.5C12.75 31.3011 12.829 31.1103 12.9697 30.9697C13.1103 30.829 13.3011 30.75 13.5 30.75H34.5C34.6989 30.75 34.8897 30.829 35.0303 30.9697C35.171 31.1103 35.25 31.3011 35.25 31.5Z" fill="#0080FF"/>
</svg>
