<svg width="48" height="48" viewBox="0 0 48 48" fill="none" xmlns="http://www.w3.org/2000/svg">
<rect x="0.5" y="0.5" width="47" height="47" rx="23.5" stroke="black" stroke-opacity="0.08"/>
<path d="M33 16.5H15C14.6022 16.5 14.2206 16.658 13.9393 16.9393C13.658 17.2206 13.5 17.6022 13.5 18V30C13.5 30.3978 13.658 30.7794 13.9393 31.0607C14.2206 31.342 14.6022 31.5 15 31.5H33C33.3978 31.5 33.7794 31.342 34.0607 31.0607C34.342 30.7794 34.5 30.3978 34.5 30V18C34.5 17.6022 34.342 17.2206 34.0607 16.9393C33.7794 16.658 33.3978 16.5 33 16.5ZM33 18V20.25H15V18H33ZM33 30H15V21.75H33V30ZM31.5 27.75C31.5 27.9489 31.421 28.1397 31.2803 28.2803C31.1397 28.421 30.9489 28.5 30.75 28.5H27.75C27.5511 28.5 27.3603 28.421 27.2197 28.2803C27.079 28.1397 27 27.9489 27 27.75C27 27.5511 27.079 27.3603 27.2197 27.2197C27.3603 27.079 27.5511 27 27.75 27H30.75C30.9489 27 31.1397 27.079 31.2803 27.2197C31.421 27.3603 31.5 27.5511 31.5 27.75ZM25.5 27.75C25.5 27.9489 25.421 28.1397 25.2803 28.2803C25.1397 28.421 24.9489 28.5 24.75 28.5H23.25C23.0511 28.5 22.8603 28.421 22.7197 28.2803C22.579 28.1397 22.5 27.9489 22.5 27.75C22.5 27.5511 22.579 27.3603 22.7197 27.2197C22.8603 27.079 23.0511 27 23.25 27H24.75C24.9489 27 25.1397 27.079 25.2803 27.2197C25.421 27.3603 25.5 27.5511 25.5 27.75Z" fill="#7B00FF"/>
</svg>
