<svg width="48" height="48" viewBox="0 0 48 48" fill="none" xmlns="http://www.w3.org/2000/svg">
<rect x="0.5" y="0.5" width="47" height="47" rx="23.5" stroke="black" stroke-opacity="0.08"/>
<path d="M24 20.25C23.2583 20.25 22.5333 20.4699 21.9166 20.882C21.2999 21.294 20.8193 21.8797 20.5355 22.5649C20.2516 23.2502 20.1774 24.0042 20.3221 24.7316C20.4667 25.459 20.8239 26.1272 21.3483 26.6517C21.8728 27.1761 22.541 27.5333 23.2684 27.6779C23.9958 27.8226 24.7498 27.7484 25.4351 27.4645C26.1203 27.1807 26.706 26.7001 27.118 26.0834C27.5301 25.4667 27.75 24.7417 27.75 24C27.75 23.0054 27.3549 22.0516 26.6517 21.3483C25.9484 20.6451 24.9946 20.25 24 20.25ZM24 26.25C23.555 26.25 23.12 26.118 22.75 25.8708C22.38 25.6236 22.0916 25.2722 21.9213 24.861C21.751 24.4499 21.7064 23.9975 21.7932 23.561C21.88 23.1246 22.0943 22.7237 22.409 22.409C22.7237 22.0943 23.1246 21.88 23.561 21.7932C23.9975 21.7064 24.4499 21.751 24.861 21.9213C25.2722 22.0916 25.6236 22.38 25.8708 22.75C26.118 23.12 26.25 23.555 26.25 24C26.25 24.5967 26.0129 25.169 25.591 25.591C25.169 26.0129 24.5967 26.25 24 26.25ZM34.5 17.25H13.5C13.3011 17.25 13.1103 17.329 12.9697 17.4697C12.829 17.6103 12.75 17.8011 12.75 18V30C12.75 30.1989 12.829 30.3897 12.9697 30.5303C13.1103 30.671 13.3011 30.75 13.5 30.75H34.5C34.6989 30.75 34.8897 30.671 35.0303 30.5303C35.171 30.3897 35.25 30.1989 35.25 30V18C35.25 17.8011 35.171 17.6103 35.0303 17.4697C34.8897 17.329 34.6989 17.25 34.5 17.25ZM30.1547 29.25H17.8453C17.5935 28.3984 17.1326 27.6233 16.5047 26.9953C15.8767 26.3674 15.1016 25.9065 14.25 25.6547V22.3453C15.1016 22.0935 15.8767 21.6326 16.5047 21.0047C17.1326 20.3767 17.5935 19.6016 17.8453 18.75H30.1547C30.4065 19.6016 30.8674 20.3767 31.4953 21.0047C32.1233 21.6326 32.8984 22.0935 33.75 22.3453V25.6547C32.8984 25.9065 32.1233 26.3674 31.4953 26.9953C30.8674 27.6233 30.4065 28.3984 30.1547 29.25ZM33.75 20.7534C32.8504 20.3666 32.1334 19.6496 31.7466 18.75H33.75V20.7534ZM16.2534 18.75C15.8666 19.6496 15.1496 20.3666 14.25 20.7534V18.75H16.2534ZM14.25 27.2466C15.1496 27.6334 15.8666 28.3504 16.2534 29.25H14.25V27.2466ZM31.7466 29.25C32.1334 28.3504 32.8504 27.6334 33.75 27.2466V29.25H31.7466Z" fill="#00CA67"/>
</svg>
