<svg width="48" height="48" viewBox="0 0 48 48" fill="none" xmlns="http://www.w3.org/2000/svg">
<rect x="0.5" y="0.5" width="47" height="47" rx="23.5" stroke="black" stroke-opacity="0.08"/>
<path d="M28.5 13.5H19.5C18.9033 13.5 18.331 13.7371 17.909 14.159C17.4871 14.581 17.25 15.1533 17.25 15.75V32.25C17.25 32.8467 17.4871 33.419 17.909 33.841C18.331 34.2629 18.9033 34.5 19.5 34.5H28.5C29.0967 34.5 29.669 34.2629 30.091 33.841C30.5129 33.419 30.75 32.8467 30.75 32.25V15.75C30.75 15.1533 30.5129 14.581 30.091 14.159C29.669 13.7371 29.0967 13.5 28.5 13.5ZM18.75 18H29.25V30H18.75V18ZM19.5 15H28.5C28.6989 15 28.8897 15.079 29.0303 15.2197C29.171 15.3603 29.25 15.5511 29.25 15.75V16.5H18.75V15.75C18.75 15.5511 18.829 15.3603 18.9697 15.2197C19.1103 15.079 19.3011 15 19.5 15ZM28.5 33H19.5C19.3011 33 19.1103 32.921 18.9697 32.7803C18.829 32.6397 18.75 32.4489 18.75 32.25V31.5H29.25V32.25C29.25 32.4489 29.171 32.6397 29.0303 32.7803C28.8897 32.921 28.6989 33 28.5 33Z" fill="#FFBB00"/>
</svg>
