<svg width="48" height="48" viewBox="0 0 48 48" fill="none" xmlns="http://www.w3.org/2000/svg">
<rect x="0.5" y="0.5" width="47" height="47" rx="23.5" stroke="black" stroke-opacity="0.08"/>
<path d="M33.2991 21.795C33.6379 21.7261 33.9425 21.5422 34.1613 21.2745C34.3802 21.0068 34.4998 20.6717 34.5 20.3259V18C34.5 17.6022 34.342 17.2206 34.0607 16.9393C33.7794 16.658 33.3978 16.5 33 16.5H15C14.6022 16.5 14.2206 16.658 13.9393 16.9393C13.658 17.2206 13.5 17.6022 13.5 18V20.3259C13.5002 20.6717 13.6198 21.0068 13.8387 21.2745C14.0575 21.5422 14.3621 21.7261 14.7009 21.795C15.2076 21.9001 15.6625 22.1765 15.9891 22.5778C16.3157 22.9791 16.4941 23.4807 16.4941 23.9981C16.4941 24.5155 16.3157 25.0171 15.9891 25.4184C15.6625 25.8197 15.2076 26.0962 14.7009 26.2013C14.3615 26.2703 14.0564 26.4547 13.8375 26.7232C13.6186 26.9917 13.4993 27.3277 13.5 27.6741V30C13.5 30.3978 13.658 30.7794 13.9393 31.0607C14.2206 31.342 14.6022 31.5 15 31.5H33C33.3978 31.5 33.7794 31.342 34.0607 31.0607C34.342 30.7794 34.5 30.3978 34.5 30V27.6741C34.4998 27.3283 34.3802 26.9932 34.1613 26.7255C33.9425 26.4578 33.6379 26.2739 33.2991 26.205C32.7924 26.0999 32.3375 25.8235 32.0109 25.4222C31.6843 25.0209 31.5059 24.5193 31.5059 24.0019C31.5059 23.4845 31.6843 22.9829 32.0109 22.5816C32.3375 22.1803 32.7924 21.9038 33.2991 21.7987V21.795ZM15 27.675C15.8472 27.5024 16.6088 27.0424 17.1557 26.3728C17.7027 25.7031 18.0015 24.8651 18.0015 24.0005C18.0015 23.1359 17.7027 22.2978 17.1557 21.6282C16.6088 20.9586 15.8472 20.4985 15 20.3259V18H20.25V30H15V27.675ZM33 27.675V30H21.75V18H33V20.325C32.1528 20.4976 31.3912 20.9576 30.8443 21.6272C30.2973 22.2969 29.9985 23.1349 29.9985 23.9995C29.9985 24.8641 30.2973 25.7022 30.8443 26.3718C31.3912 27.0414 32.1528 27.5015 33 27.6741V27.675Z" fill="#FF5800"/>
</svg>
