<svg width="48" height="48" viewBox="0 0 48 48" fill="none" xmlns="http://www.w3.org/2000/svg">
<rect x="0.5" y="0.5" width="47" height="47" rx="23.5" stroke="black" stroke-opacity="0.08"/>
<path d="M32.25 18.75H17.25C17.0511 18.75 16.8603 18.671 16.7197 18.5303C16.579 18.3897 16.5 18.1989 16.5 18C16.5 17.8011 16.579 17.6103 16.7197 17.4697C16.8603 17.329 17.0511 17.25 17.25 17.25H30C30.1989 17.25 30.3897 17.171 30.5303 17.0303C30.671 16.8897 30.75 16.6989 30.75 16.5C30.75 16.3011 30.671 16.1103 30.5303 15.9697C30.3897 15.829 30.1989 15.75 30 15.75H17.25C16.6533 15.75 16.081 15.9871 15.659 16.409C15.2371 16.831 15 17.4033 15 18V30C15 30.5967 15.2371 31.169 15.659 31.591C16.081 32.0129 16.6533 32.25 17.25 32.25H32.25C32.6478 32.25 33.0294 32.092 33.3107 31.8107C33.592 31.5294 33.75 31.1478 33.75 30.75V20.25C33.75 19.8522 33.592 19.4706 33.3107 19.1893C33.0294 18.908 32.6478 18.75 32.25 18.75ZM32.25 30.75H17.25C17.0511 30.75 16.8603 30.671 16.7197 30.5303C16.579 30.3897 16.5 30.1989 16.5 30V20.1216C16.7408 20.2069 16.9945 20.2504 17.25 20.25H32.25V30.75ZM27.75 25.125C27.75 24.9025 27.816 24.685 27.9396 24.5C28.0632 24.315 28.2389 24.1708 28.4445 24.0856C28.65 24.0005 28.8762 23.9782 29.0945 24.0216C29.3127 24.065 29.5132 24.1722 29.6705 24.3295C29.8278 24.4868 29.935 24.6873 29.9784 24.9055C30.0218 25.1238 29.9995 25.35 29.9144 25.5555C29.8292 25.7611 29.685 25.9368 29.5 26.0604C29.315 26.184 29.0975 26.25 28.875 26.25C28.5766 26.25 28.2905 26.1315 28.0795 25.9205C27.8685 25.7095 27.75 25.4234 27.75 25.125Z" fill="#FFBB00"/>
</svg>
